<mxfile host="app.diagrams.net" agent="Mozilla/5.0 (Windows NT 10.0; Win64; x64) AppleWebKit/537.36 (KHTML, like Gecko) Chrome/138.0.0.0 Safari/537.36" version="28.0.6">
  <diagram name="Page-1" id="KgEA69p9m97MHOAljzwE">
    <mxGraphModel dx="872" dy="517" grid="1" gridSize="10" guides="1" tooltips="1" connect="1" arrows="1" fold="1" page="1" pageScale="1" pageWidth="850" pageHeight="1100" math="0" shadow="0">
      <root>
        <mxCell id="0" />
        <mxCell id="1" parent="0" />
        <mxCell id="vxPe_q0jWbyT2IYPc8e5-1" value="" style="rounded=0;whiteSpace=wrap;html=1;" parent="1" vertex="1">
          <mxGeometry x="220" y="40" width="450" height="570" as="geometry" />
        </mxCell>
        <mxCell id="vxPe_q0jWbyT2IYPc8e5-2" value="Bed" style="rounded=0;whiteSpace=wrap;html=1;" parent="1" vertex="1">
          <mxGeometry x="530" y="50" width="130" height="330" as="geometry" />
        </mxCell>
        <mxCell id="vxPe_q0jWbyT2IYPc8e5-3" value="Workbench" style="rounded=0;whiteSpace=wrap;html=1;" parent="1" vertex="1">
          <mxGeometry x="350" y="50" width="170" height="60" as="geometry" />
        </mxCell>
        <mxCell id="vxPe_q0jWbyT2IYPc8e5-4" value="Filing cabnet&amp;nbsp;" style="rounded=0;whiteSpace=wrap;html=1;" parent="1" vertex="1">
          <mxGeometry x="230" y="50" width="80" height="60" as="geometry" />
        </mxCell>
        <mxCell id="vxPe_q0jWbyT2IYPc8e5-5" value="Desk Setup" style="rounded=0;whiteSpace=wrap;html=1;" parent="1" vertex="1">
          <mxGeometry x="230" y="130" width="120" height="220" as="geometry" />
        </mxCell>
        <mxCell id="vxPe_q0jWbyT2IYPc8e5-6" value="P1S" style="rounded=0;whiteSpace=wrap;html=1;" parent="1" vertex="1">
          <mxGeometry x="360" y="60" width="40" height="40" as="geometry" />
        </mxCell>
        <mxCell id="Pr0puLZZZiheJCNQCXYY-1" value="Table" style="rounded=0;whiteSpace=wrap;html=1;" vertex="1" parent="1">
          <mxGeometry x="580" y="390" width="80" height="80" as="geometry" />
        </mxCell>
        <mxCell id="Pr0puLZZZiheJCNQCXYY-2" value="" style="rounded=0;whiteSpace=wrap;html=1;" vertex="1" parent="1">
          <mxGeometry x="530" y="630" width="140" height="430" as="geometry" />
        </mxCell>
        <mxCell id="Pr0puLZZZiheJCNQCXYY-3" value="Cabinet" style="rounded=0;whiteSpace=wrap;html=1;" vertex="1" parent="1">
          <mxGeometry x="230" y="360" width="80" height="130" as="geometry" />
        </mxCell>
        <mxCell id="Pr0puLZZZiheJCNQCXYY-4" value="Shelf" style="rounded=0;whiteSpace=wrap;html=1;" vertex="1" parent="1">
          <mxGeometry x="420" y="550" width="75" height="50" as="geometry" />
        </mxCell>
        <mxCell id="Pr0puLZZZiheJCNQCXYY-5" value="" style="shape=image;html=1;verticalAlign=top;verticalLabelPosition=bottom;labelBackgroundColor=#ffffff;imageAspect=0;aspect=fixed;image=https://icons.diagrams.net/icon-cache1/Boxicons_Solid_Vol_1-2638/bxs-circle-quarter-748.svg;rotation=-90;" vertex="1" parent="1">
          <mxGeometry x="540" y="480" width="230" height="230" as="geometry" />
        </mxCell>
        <mxCell id="Pr0puLZZZiheJCNQCXYY-6" value="" style="shape=image;html=1;verticalAlign=top;verticalLabelPosition=bottom;labelBackgroundColor=#ffffff;imageAspect=0;aspect=fixed;image=https://icons.diagrams.net/icon-cache1/Boxicons_Solid_Vol_1-2638/bxs-circle-quarter-748.svg;rotation=0;" vertex="1" parent="1">
          <mxGeometry x="120" y="480" width="230" height="230" as="geometry" />
        </mxCell>
        <mxCell id="Pr0puLZZZiheJCNQCXYY-7" value="Lamp&amp;nbsp;&lt;div&gt;Shelf&lt;/div&gt;" style="ellipse;whiteSpace=wrap;html=1;aspect=fixed;" vertex="1" parent="1">
          <mxGeometry x="355" y="550" width="50" height="50" as="geometry" />
        </mxCell>
        <mxCell id="Pr0puLZZZiheJCNQCXYY-8" value="Chair" style="ellipse;whiteSpace=wrap;html=1;aspect=fixed;" vertex="1" parent="1">
          <mxGeometry x="360" y="210" width="60" height="60" as="geometry" />
        </mxCell>
        <mxCell id="Pr0puLZZZiheJCNQCXYY-9" value="Pillow" style="rounded=1;whiteSpace=wrap;html=1;" vertex="1" parent="1">
          <mxGeometry x="540" y="60" width="110" height="50" as="geometry" />
        </mxCell>
        <mxCell id="Pr0puLZZZiheJCNQCXYY-10" value="Bed" style="rounded=0;whiteSpace=wrap;html=1;" vertex="1" parent="1">
          <mxGeometry x="530" y="130" width="130" height="250" as="geometry" />
        </mxCell>
        <mxCell id="Pr0puLZZZiheJCNQCXYY-11" value="Desk&lt;div&gt;Extend&lt;/div&gt;" style="rounded=0;whiteSpace=wrap;html=1;" vertex="1" parent="1">
          <mxGeometry x="350" y="130" width="70" height="50" as="geometry" />
        </mxCell>
        <mxCell id="Pr0puLZZZiheJCNQCXYY-12" value="Desk&lt;div&gt;Extend&lt;/div&gt;" style="rounded=0;whiteSpace=wrap;html=1;" vertex="1" parent="1">
          <mxGeometry x="350" y="300" width="70" height="50" as="geometry" />
        </mxCell>
        <mxCell id="Pr0puLZZZiheJCNQCXYY-20" value="Bookshelf" style="rounded=0;whiteSpace=wrap;html=1;" vertex="1" parent="1">
          <mxGeometry x="570" y="1030" width="100" height="30" as="geometry" />
        </mxCell>
        <mxCell id="Pr0puLZZZiheJCNQCXYY-19" value="Hanger" style="rounded=0;whiteSpace=wrap;html=1;" vertex="1" parent="1">
          <mxGeometry x="620" y="730" width="50" height="330" as="geometry" />
        </mxCell>
        <mxCell id="Pr0puLZZZiheJCNQCXYY-21" value="Dresser&lt;div&gt;Shelf&lt;/div&gt;" style="rounded=0;whiteSpace=wrap;html=1;" vertex="1" parent="1">
          <mxGeometry x="530" y="650" width="60" height="290" as="geometry" />
        </mxCell>
        <mxCell id="Pr0puLZZZiheJCNQCXYY-22" value="Boxes" style="rounded=0;whiteSpace=wrap;html=1;" vertex="1" parent="1">
          <mxGeometry x="530" y="950" width="80" height="80" as="geometry" />
        </mxCell>
        <mxCell id="Pr0puLZZZiheJCNQCXYY-23" value="Laundry" style="rounded=0;whiteSpace=wrap;html=1;" vertex="1" parent="1">
          <mxGeometry x="600" y="660" width="60" height="40" as="geometry" />
        </mxCell>
        <mxCell id="Pr0puLZZZiheJCNQCXYY-24" value="Closet" style="text;html=1;align=center;verticalAlign=middle;whiteSpace=wrap;rounded=0;" vertex="1" parent="1">
          <mxGeometry x="460" y="630" width="60" height="30" as="geometry" />
        </mxCell>
        <mxCell id="Pr0puLZZZiheJCNQCXYY-25" value="Bedroom" style="text;html=1;align=center;verticalAlign=middle;whiteSpace=wrap;rounded=0;" vertex="1" parent="1">
          <mxGeometry x="160" y="40" width="60" height="30" as="geometry" />
        </mxCell>
      </root>
    </mxGraphModel>
  </diagram>
</mxfile>
